<svg width="21" height="21" viewBox="0 0 21 21" fill="none" xmlns="http://www.w3.org/2000/svg">
<path d="M18.2109 8.53125C18.2109 8.66179 18.1591 8.78698 18.0668 8.87928C17.9745 8.97158 17.8493 9.02344 17.7188 9.02344C17.5882 9.02344 17.463 8.97158 17.3707 8.87928C17.2784 8.78698 17.2266 8.66179 17.2266 8.53125V4.46988L11.5049 10.1916C11.4116 10.2785 11.2882 10.3258 11.1607 10.3236C11.0332 10.3213 10.9115 10.2697 10.8213 10.1795C10.7311 10.0893 10.6795 9.96767 10.6772 9.84016C10.675 9.71265 10.7223 9.58924 10.8093 9.49594L16.5301 3.77344H12.4688C12.3382 3.77344 12.213 3.72158 12.1207 3.62928C12.0284 3.53698 11.9766 3.41179 11.9766 3.28125C11.9766 3.15071 12.0284 3.02552 12.1207 2.93322C12.213 2.84092 12.3382 2.78906 12.4688 2.78906H17.7188C17.8493 2.78906 17.9745 2.84092 18.0668 2.93322C18.1591 3.02552 18.2109 3.15071 18.2109 3.28125V8.53125ZM15.0938 10.6641C14.9632 10.6641 14.838 10.7159 14.7457 10.8082C14.6534 10.9005 14.6016 11.0257 14.6016 11.1562V17.0625C14.6016 17.106 14.5843 17.1477 14.5535 17.1785C14.5227 17.2093 14.481 17.2266 14.4375 17.2266H3.9375C3.89399 17.2266 3.85226 17.2093 3.82149 17.1785C3.79072 17.1477 3.77344 17.106 3.77344 17.0625V6.5625C3.77344 6.51899 3.79072 6.47726 3.82149 6.44649C3.85226 6.41572 3.89399 6.39844 3.9375 6.39844H9.84375C9.97429 6.39844 10.0995 6.34658 10.1918 6.25428C10.2841 6.16198 10.3359 6.03679 10.3359 5.90625C10.3359 5.77571 10.2841 5.65052 10.1918 5.55822C10.0995 5.46592 9.97429 5.41406 9.84375 5.41406H3.9375C3.63292 5.41406 3.34081 5.53506 3.12543 5.75043C2.91006 5.96581 2.78906 6.25792 2.78906 6.5625V17.0625C2.78906 17.3671 2.91006 17.6592 3.12543 17.8746C3.34081 18.0899 3.63292 18.2109 3.9375 18.2109H14.4375C14.7421 18.2109 15.0342 18.0899 15.2496 17.8746C15.4649 17.6592 15.5859 17.3671 15.5859 17.0625V11.1562C15.5859 11.0257 15.5341 10.9005 15.4418 10.8082C15.3495 10.7159 15.2243 10.6641 15.0938 10.6641Z" fill="#4E8200"/>
</svg>
