<svg width="24" height="24" viewBox="0 0 24 24" fill="none" xmlns="http://www.w3.org/2000/svg">
<path d="M21.75 4.875H15C14.3799 4.87529 13.7719 5.0464 13.2427 5.36955C12.7135 5.6927 12.2835 6.15541 12 6.70688C11.7165 6.15541 11.2865 5.6927 10.7573 5.36955C10.2281 5.0464 9.62008 4.87529 9 4.875H2.25C2.15054 4.875 2.05516 4.91451 1.98484 4.98484C1.91451 5.05516 1.875 5.15054 1.875 5.25V18.75C1.875 18.8495 1.91451 18.9448 1.98484 19.0152C2.05516 19.0855 2.15054 19.125 2.25 19.125H9C9.69619 19.125 10.3639 19.4016 10.8562 19.8938C11.3484 20.3861 11.625 21.0538 11.625 21.75C11.625 21.8495 11.6645 21.9448 11.7348 22.0152C11.8052 22.0855 11.9005 22.125 12 22.125C12.0995 22.125 12.1948 22.0855 12.2652 22.0152C12.3355 21.9448 12.375 21.8495 12.375 21.75C12.375 21.0538 12.6516 20.3861 13.1438 19.8938C13.6361 19.4016 14.3038 19.125 15 19.125H21.75C21.8495 19.125 21.9448 19.0855 22.0152 19.0152C22.0855 18.9448 22.125 18.8495 22.125 18.75V5.25C22.125 5.15054 22.0855 5.05516 22.0152 4.98484C21.9448 4.91451 21.8495 4.875 21.75 4.875ZM9 18.375H2.625V5.625H9C9.69619 5.625 10.3639 5.90156 10.8562 6.39384C11.3484 6.88613 11.625 7.55381 11.625 8.25V19.6312C11.3092 19.239 10.9094 18.9225 10.4551 18.7051C10.0008 18.4877 9.50362 18.3749 9 18.375ZM21.375 18.375H15C14.4963 18.375 13.999 18.488 13.5448 18.7055C13.0905 18.9231 12.6908 19.2398 12.375 19.6322V8.25C12.375 7.55381 12.6516 6.88613 13.1438 6.39384C13.6361 5.90156 14.3038 5.625 15 5.625H21.375V18.375ZM15 8.625H18.75C18.8495 8.625 18.9448 8.66451 19.0152 8.73483C19.0855 8.80516 19.125 8.90054 19.125 9C19.125 9.09946 19.0855 9.19484 19.0152 9.26517C18.9448 9.33549 18.8495 9.375 18.75 9.375H15C14.9005 9.375 14.8052 9.33549 14.7348 9.26517C14.6645 9.19484 14.625 9.09946 14.625 9C14.625 8.90054 14.6645 8.80516 14.7348 8.73483C14.8052 8.66451 14.9005 8.625 15 8.625ZM19.125 12C19.125 12.0995 19.0855 12.1948 19.0152 12.2652C18.9448 12.3355 18.8495 12.375 18.75 12.375H15C14.9005 12.375 14.8052 12.3355 14.7348 12.2652C14.6645 12.1948 14.625 12.0995 14.625 12C14.625 11.9005 14.6645 11.8052 14.7348 11.7348C14.8052 11.6645 14.9005 11.625 15 11.625H18.75C18.8495 11.625 18.9448 11.6645 19.0152 11.7348C19.0855 11.8052 19.125 11.9005 19.125 12ZM19.125 15C19.125 15.0995 19.0855 15.1948 19.0152 15.2652C18.9448 15.3355 18.8495 15.375 18.75 15.375H15C14.9005 15.375 14.8052 15.3355 14.7348 15.2652C14.6645 15.1948 14.625 15.0995 14.625 15C14.625 14.9005 14.6645 14.8052 14.7348 14.7348C14.8052 14.6645 14.9005 14.625 15 14.625H18.75C18.8495 14.625 18.9448 14.6645 19.0152 14.7348C19.0855 14.8052 19.125 14.9005 19.125 15Z" fill="#333333" style="mix-blend-mode:color-burn"/>
</svg>
