<svg width="84" height="20" viewBox="0 0 84 20" fill="none" xmlns="http://www.w3.org/2000/svg">
<g clip-path="url(#clip0_4025_1249)">
<path d="M83.6688 12.1C83.4467 11.9172 83.2324 11.8278 83.0258 11.8278C82.6362 11.8278 82.4413 12.0222 82.4413 12.4111C82.4413 12.6328 82.5076 12.8389 82.6362 13.0333C82.7804 13.2161 82.9557 13.3055 83.1622 13.3055C83.3688 13.3055 83.5597 13.255 83.7273 13.15C83.9104 13.045 84 12.8894 84 12.6833C84 12.4772 83.8909 12.2828 83.6688 12.1Z" fill="#333333" style="mix-blend-mode:color-burn"/>
<path d="M77.0095 7.74444C76.5029 7.53833 76.0353 7.43333 75.6067 7.43333C74.9053 7.43333 74.2429 7.70556 73.6194 8.25C73.4362 8.40556 73.0544 8.78667 72.4699 9.39722C71.8854 10.0078 71.3905 10.4744 70.9891 10.7972C70.5878 11.1083 70.0344 11.4078 69.333 11.6917C69.2863 11.7111 69.2512 11.7306 69.2083 11.7539C69.1577 11.7578 69.0096 11.8044 68.7524 11.8861C67.8562 12.1856 66.9483 12.3333 66.0248 12.3333C65.1012 12.3333 64.3804 12.1467 63.8621 11.7694C65.0311 11.1861 65.9195 10.6728 66.5313 10.2333C66.9716 9.92222 67.299 9.60333 67.5055 9.28056C67.712 8.95778 67.8172 8.57278 67.8172 8.13333C67.8172 7.69389 67.6224 7.29722 67.2327 6.98611C66.8431 6.66333 66.3092 6.5 65.6351 6.5C64.961 6.5 64.2128 6.91611 63.3945 7.74444C62.5762 8.57278 62.167 9.57222 62.167 10.7389C62.167 10.9722 62.1943 11.1472 62.245 11.2639C62.2489 11.2717 61.7579 11.5361 61.7189 11.5594C61.2786 11.8044 60.7837 11.7694 60.2966 11.7889L59.5251 11.8161L58.6912 11.8433L57.8963 11.8706L57.2377 11.8939L56.813 11.9094H56.7078C55.9791 11.9094 55.0829 11.8861 54.0191 11.8356C52.967 11.785 52.3045 11.7578 52.024 11.7578L47.348 11.9133C46.6193 11.9133 45.723 11.8861 44.6592 11.8356C43.6071 11.785 42.9447 11.7578 42.6641 11.7578L37.9881 11.9133C37.2594 11.9133 36.3632 11.8861 35.2994 11.8356C34.2473 11.785 33.5849 11.7578 33.3043 11.7578L28.6283 11.9133C27.8996 11.9133 27.0034 11.8861 25.9396 11.8356C24.8875 11.785 24.225 11.7578 23.9445 11.7578L19.2685 11.9133C18.5398 11.9133 17.6435 11.8861 16.5797 11.8356C15.5276 11.785 14.8652 11.7578 14.5924 11.7578C14.2028 11.7578 14.0079 11.9522 14.0079 12.3411C14.0079 12.73 14.2028 12.9244 14.5924 12.9244C14.8652 12.9244 15.5276 12.9517 16.5797 13.0022C17.6435 13.0528 18.5398 13.08 19.2685 13.08C19.2685 13.08 23.9445 12.9244 23.9523 12.9244C24.225 12.9244 24.8875 12.9517 25.9396 13.0022C27.0034 13.0528 27.8996 13.08 28.6283 13.08C28.6283 13.08 33.3043 12.9244 33.3121 12.9244C33.5849 12.9244 34.2473 12.9517 35.2994 13.0022C36.3632 13.0528 37.2594 13.08 37.9881 13.08C37.9881 13.08 42.6641 12.9244 42.6719 12.9244C42.9447 12.9244 43.6071 12.9517 44.6592 13.0022C45.723 13.0528 46.6193 13.08 47.348 13.08C47.348 13.08 52.024 12.9244 52.0318 12.9244C52.3045 12.9244 52.967 12.9517 54.0191 13.0022C55.0829 13.0528 55.9791 13.08 56.7078 13.08H56.8676C57.0078 13.0683 57.152 13.0644 57.2923 13.0606L57.908 13.0411L58.6405 13.0178L59.4121 12.9906C59.7355 12.9789 60.0628 12.9711 60.3863 12.9594C60.7019 12.9517 61.0175 12.9672 61.3293 12.9128C61.641 12.8583 61.9449 12.765 62.2255 12.6211C62.3229 12.5744 62.4086 12.5161 62.5022 12.4617C62.545 12.4383 62.623 12.3761 62.6736 12.3761C63.4919 13.1267 64.6219 13.5039 66.0637 13.5039C67.0769 13.5039 68.129 13.3211 69.22 12.9594C69.3019 12.9322 69.3681 12.9011 69.4343 12.8661C69.6058 12.8311 69.8981 12.7222 70.3228 12.5317C70.8566 12.2983 71.3242 12.0183 71.7256 11.6956C72.1425 11.3728 72.6608 10.8867 73.2843 10.2372C73.9194 9.58778 74.2974 9.21444 74.4143 9.10944C74.804 8.77111 75.2014 8.60389 75.6028 8.60389C76.3042 8.60389 76.9277 8.90333 77.4732 9.49833C77.7849 9.84833 77.9408 10.2644 77.9408 10.7428C77.9408 11.0928 77.6213 11.4428 76.9861 11.7928C76.351 12.1311 75.4976 12.2983 74.4338 12.2983C74.0441 12.2983 73.8493 12.4928 73.8493 12.8817C73.8493 13.2706 74.0441 13.465 74.4338 13.465C75.8366 13.465 76.9666 13.2006 77.8239 12.6678C78.6812 12.1233 79.1098 11.4894 79.1098 10.7622C79.1098 10.035 78.8877 9.38944 78.4474 8.85667C78.0071 8.32389 77.5239 7.95444 77.0056 7.74833L77.0095 7.74444ZM64.2167 8.6C64.8012 7.97778 65.2883 7.66667 65.6779 7.66667C66.3287 7.66667 66.6521 7.86111 66.6521 8.25C66.6521 8.80611 65.5494 9.63833 63.3399 10.7389C63.3399 9.92222 63.6322 9.21056 64.2167 8.6Z" fill="#333333" style="mix-blend-mode:color-burn"/>
</g>
<path d="M7.17106 8.41C7.17106 8.716 6.90105 8.95 6.63106 8.95C6.52305 8.95 6.41506 8.914 6.32505 8.86C6.12706 8.734 6.00106 8.68 5.73105 8.68C5.11905 8.68 4.65105 9.148 4.65105 9.76C4.65105 10.3 5.04706 10.66 5.73105 10.66C6.55905 10.66 6.91906 10.336 7.00906 10.246C7.09905 10.174 7.22505 10.12 7.35105 10.12C7.63906 10.12 7.89105 10.372 7.89105 10.66C7.89105 10.786 7.85505 10.93 7.74706 11.038C7.67506 11.11 7.00906 11.74 5.73105 11.74C4.61505 11.74 3.57105 11.02 3.57105 9.76C3.57105 8.572 4.54305 7.6 5.73105 7.6C6.27105 7.6 7.17106 7.816 7.17106 8.41ZM4.47105 5.8C4.20105 5.8 3.93105 5.584 3.93105 5.278C3.93105 5.116 4.00305 4.936 4.12905 4.828C4.21905 4.756 5.04706 4.18 6.45105 4.18C9.07906 4.18 10.9511 6.052 10.9511 8.68C10.9511 11.542 8.17906 14.08 5.37105 14.08C3.03105 14.08 1.05105 12.82 1.05105 10.3C1.05105 8.698 1.84305 7.402 2.79705 6.934C2.86905 6.898 2.95905 6.88 3.03105 6.88C3.30105 6.88 3.57105 7.096 3.57105 7.42C3.57105 7.618 3.44505 7.816 3.26505 7.906C2.77905 8.158 2.13105 9.022 2.13105 10.3C2.13105 12.1 3.39105 13 5.37105 13C7.60305 13 9.87106 10.858 9.87106 8.68C9.87106 6.628 8.50306 5.26 6.45105 5.26C5.06505 5.26 4.99305 5.8 4.47105 5.8Z" fill="#333333" style="mix-blend-mode:color-burn"/>
<defs>
<clipPath id="clip0_4025_1249">
<rect width="70" height="7" fill="white" transform="translate(14 6.5)"/>
</clipPath>
</defs>
</svg>
