<svg width="180" height="33" viewBox="0 0 180 33" fill="none" xmlns="http://www.w3.org/2000/svg">
<mask id="mask0_4312_1677" style="mask-type:luminance" maskUnits="userSpaceOnUse" x="0" y="0" width="53" height="33">
<path d="M52.3205 0H0V32.3367H52.3205V0Z" fill="white"/>
</mask>
<g mask="url(#mask0_4312_1677)">
<path d="M29.3962 -6.10352e-05H23.0602C22.22 -6.10352e-05 20.2798 0.628848 20.2798 0.871097L38.5472 29.8814C39.4856 31.4 41.166 32.3366 42.9445 32.3366H52.3221L33.7935 2.45504C33.1468 1.42123 32.1449 0.646121 31.0131 0.258634" fill="#0C6768"/>
<path d="M22.9245 32.3049H29.3642C29.3642 32.3049 31.7508 31.4 31.2989 30.6893L13.8067 2.42249C12.8683 0.904878 11.1866 0 9.40804 0H0L18.4374 29.7383C19.0842 30.7721 20.1621 31.7057 21.3063 32.079" fill="#0C6768"/>
<path d="M9.31855 32.3366H0.00585938L18.5013 2.51957C19.4714 0.969344 21.2168 -6.10352e-05 23.0603 -6.10352e-05H29.7971C30.1854 -6.10352e-05 31.4153 0.301608 31.9238 0.669748L13.8775 29.7853C12.9074 31.3682 11.1938 32.3048 9.35033 32.3048L9.31717 32.338L9.31855 32.3366Z" fill="#222222"/>
<path d="M43.0095 -0.00012207H52.3208L33.8585 29.7842C32.8897 31.3672 31.1762 32.3034 29.3313 32.3034H22.5641C21.5222 32.3034 20.6419 31.8283 20.5244 31.7342L38.4823 2.51951C39.4524 0.936532 41.1646 -0.00012207 43.0095 -0.00012207Z" fill="#222222"/>
</g>
<path d="M61.5166 3.46692H67.0332V13.7848H77.204V3.46692H82.7206V29.5418H77.204V19.0742H67.0332V29.5418H61.5166V3.46692Z" fill="#222222"/>
<path d="M87.2333 19.6707V19.5958C87.2333 13.8961 91.1372 9.20312 96.7243 9.20312C103.136 9.20312 106.071 14.3813 106.071 20.0425C106.071 20.4892 106.036 21.0106 106.001 21.532H92.6407C93.1783 24.1019 94.8988 25.4429 97.3337 25.4429C99.1592 25.4429 100.484 24.8466 101.989 23.3945L105.106 26.2625C103.315 28.5716 100.735 29.9875 97.2604 29.9875C91.4937 29.9875 87.2319 25.7784 87.2319 19.6696H87.2333V19.6707ZM100.772 17.9941C100.45 15.4617 99.0168 13.7477 96.7243 13.7477C94.4331 13.7477 93 15.4242 92.5703 17.9941H100.772Z" fill="#222222"/>
<path d="M110.371 2.34924H115.816V29.5418H110.371V2.34924Z" fill="#222222"/>
<path d="M121.044 2.34924H126.775V7.37787H121.044V2.34924ZM121.188 9.57594H126.632V29.5418H121.188V9.57594Z" fill="#222222"/>
<path d="M152.777 2.34924H158.508V7.37787H152.777V2.34924ZM152.921 9.57594H158.366V29.5418H152.921V9.57594Z" fill="#222222"/>
<path d="M162.34 23.8046V23.7299C162.34 19.3712 165.528 17.3602 170.078 17.3602C172.011 17.3602 173.408 17.6958 174.769 18.1797V17.8442C174.769 15.4977 173.372 14.194 170.651 14.194C168.573 14.194 167.105 14.6033 165.35 15.2744L163.989 10.9532C166.102 9.98499 168.18 9.35138 171.439 9.35138C174.413 9.35138 176.56 10.171 177.921 11.5868C179.354 13.0763 180 15.2744 180 17.9564V29.5418H174.735V27.3812C173.409 28.908 171.583 29.9136 168.931 29.9136C165.314 29.9136 162.34 27.7529 162.34 23.8046ZM174.841 22.5011V21.4955C173.908 21.0488 172.691 20.7508 171.366 20.7508C169.038 20.7508 167.605 21.7188 167.605 23.5077V23.5824C167.605 25.1094 168.823 26.0038 170.578 26.0038C173.119 26.0038 174.84 24.5506 174.84 22.5022H174.841V22.5011Z" fill="#222222"/>
<path d="M144.145 29.554C143.005 29.554 141.946 28.9747 141.345 27.9953L130.185 9.9893C130.5 9.76142 131.26 9.57556 131.501 9.57556H135.667C136.809 9.57556 137.888 10.1752 138.488 11.1342L149.924 29.5743H144.166L144.145 29.554Z" fill="#0C6768"/>
<path d="M135.945 29.5743H130.185L141.623 11.1342C142.223 10.1752 143.304 9.57556 144.442 9.57556H148.61C148.85 9.57556 149.611 9.76253 149.924 9.9893L138.764 27.9953C138.166 28.9747 137.106 29.554 135.964 29.554L135.945 29.5743Z" fill="#222222"/>
</svg>
